<svg width="16" height="16" viewBox="0 0 16 16" fill="none" xmlns="http://www.w3.org/2000/svg">
<path d="M2 2V10H4V12H6V14H11.9004L13.4502 15.5498C13.7502 15.8498 14.125 16 14.5 16C14.875 16 15.2498 15.8498 15.5498 15.5498C15.8498 15.2498 16 14.875 16 14.5C16 14.125 15.8498 13.7502 15.5498 13.4502L14 11.9004V6H12V4H10V2H2ZM3 3H9V4H4V9H3V3ZM5 5H11V6H6V11H5V5ZM7 7H13V10.8994L11.6504 9.5498L9 9L9.5498 11.6504L10.8994 13H7V7ZM10.2998 10.2998L11.1504 10.4502L14.8496 14.1504C15.0496 14.3504 15.0496 14.6496 14.8496 14.8496C14.6496 15.0496 14.3504 15.0496 14.1504 14.8496L10.4502 11.1504L10.2998 10.2998Z" fill="#312E2E"/>
</svg>
